<?xml version="1.0" encoding="UTF-8"?>
<svg xmlns="http://www.w3.org/2000/svg" xmlns:xlink="http://www.w3.org/1999/xlink" xmlns:svgjs="http://svgjs.com/svgjs" version="1.1" width="512" height="512" x="0" y="0" viewBox="0 0 512 512" style="enable-background:new 0 0 512 512" xml:space="preserve" class="">
  <g>
    <g xmlns="http://www.w3.org/2000/svg">
      <g>
        <ellipse cx="255.944" cy="256" fill="#fcba03" rx="103.55" ry="103.561" data-original="#fcba03" style=""/>
      </g>
      <g fill="#020288">
        <path d="m508.182 291.918c-4.341-3.415-10.629-2.662-14.042 1.679-41.252 52.453-127.051 140.449-238.195 140.449-110.924 0-196.667-87.764-237.904-140.079-3.42-4.339-9.707-5.082-14.044-1.663-4.338 3.419-5.082 9.707-1.663 14.044 43.48 55.161 134.246 147.698 253.611 147.698 119.598 0 210.422-92.78 253.916-148.086 3.413-4.341 2.662-10.628-1.679-14.042z" fill="#ffffff" data-original="#020288" style="" class=""/>
        <path d="m3.815 219.938c1.833 1.443 4.013 2.143 6.178 2.143 2.96 0 5.892-1.309 7.864-3.816 41.246-52.401 127.023-140.31 238.087-140.31 110.928 0 196.671 87.768 237.908 140.085 3.418 4.338 9.706 5.08 14.044 1.663 4.337-3.419 5.082-9.706 1.663-14.044-43.48-55.163-134.246-147.704-253.615-147.704-119.512 0-210.313 92.689-253.802 147.941-3.415 4.339-2.666 10.627 1.673 14.042z" fill="#ffffff" data-original="#020288" style="" class=""/>
        <path d="m423.362 176.621c-23.669-21.515-48.231-38.686-73.007-51.036-31.34-15.623-63.104-23.544-94.411-23.544-31.308 0-63.071 7.921-94.411 23.544-24.775 12.35-49.338 29.521-73.007 51.036-40.096 36.445-63.576 72.432-64.557 73.945-2.14 3.307-2.14 7.561 0 10.867.981 1.514 24.461 37.5 64.557 73.945 23.669 21.515 48.231 38.686 73.007 51.036 31.34 15.623 63.104 23.544 94.411 23.544 31.308 0 63.071-7.921 94.411-23.544 24.775-12.35 49.338-29.521 73.007-51.036 40.096-36.445 63.576-72.432 64.557-73.945 2.14-3.307 2.14-7.561 0-10.867-.98-1.513-24.461-37.499-64.557-73.945zm-13.452 143.959c-34.82 31.65-89.797 69.379-153.966 69.379-64.006 0-118.858-37.55-153.604-69.051-29.414-26.668-49.845-53.671-57.838-64.912 7.943-11.184 28.183-37.949 57.476-64.576 34.82-31.65 89.797-69.379 153.966-69.379 64.006 0 118.858 37.55 153.604 69.051 29.412 26.666 49.843 53.667 57.838 64.912-7.944 11.184-28.183 37.949-57.476 64.576z" fill="#ffffff" data-original="#020288" style="" class=""/>
        <path d="m267.286 247.64c-.842-.298-1.657-.589-2.445-.872v-21.166c1.24.679 2.138 1.463 2.663 2.214 3.167 4.526 9.402 5.626 13.927 2.46 4.525-3.167 5.626-9.402 2.46-13.927-3.782-5.403-10.425-9.977-19.05-11.799v-.01c0-5.522-4.478-10-10-10s-10 4.478-10 10v.697c-.738.189-1.481.396-2.231.623-10.763 3.252-18.888 13.703-19.757 25.415-.864 11.633 5.285 21.729 16.448 27.009 1.279.605 3.169 1.404 5.54 2.347v26.405c-2.688-1.127-5.032-2.678-6.637-4.675-3.458-4.305-9.752-4.991-14.059-1.533-4.306 3.459-4.992 9.753-1.533 14.059 5.746 7.153 14.023 11.181 22.241 13.078.262 5.289 4.634 9.497 9.987 9.497 5.106 0 9.318-3.828 9.925-8.77 14.629-2.513 24.911-12.195 26.593-25.4 1.946-15.278-7.954-29.938-24.072-35.652zm-24.489-14.884c.139-1.867.912-3.712 2.044-5.156v10.613c-1.533-1.472-2.206-3.277-2.044-5.457zm28.722 48.008c-.432 3.391-2.794 5.933-6.678 7.339v-19.558c5.201 3.339 7.171 8.341 6.678 12.219z" fill="#ffffff" data-original="#020288" style="" class=""/>
      </g>
    </g>
  </g>
</svg>
