<?xml version="1.0" encoding="UTF-8"?>
<svg xmlns="http://www.w3.org/2000/svg" xmlns:xlink="http://www.w3.org/1999/xlink" xmlns:svgjs="http://svgjs.com/svgjs" version="1.1" width="512" height="512" x="0" y="0" viewBox="0 0 512 512" style="enable-background:new 0 0 512 512" xml:space="preserve" class="">
  <g>
    <g xmlns="http://www.w3.org/2000/svg">
      <g>
        <g>
          <g>
            <path d="m259.755 228.085 81.197-136.464-156.664 17.184 23.461 37.08-190.754 123.219 28.547 45.12 190.754-123.219z" fill="#fcba03" data-original="#fcba03" style=""/>
          </g>
        </g>
      </g>
      <g>
        <path d="m500.59 79.628 11.018-38.168c.872-3.02.273-6.273-1.616-8.784-1.889-2.512-4.849-3.989-7.992-3.989h-104.225c-5.523 0-10 4.478-10 10v159.723h-29.885c-5.523 0-10 4.477-10 10v41.362h-27.67c-5.523 0-10 4.477-10 10v52.639h-145.11c-5.523 0-10 4.478-10 10v52.638h-145.11c-5.523 0-10 4.478-10 10v88.266c0 5.522 4.477 10 10 10h465.331c5.523 0 10-4.478 10-10v-213.543c0-5.522-4.477-10-10-10h-27.669v-41.362c0-5.523-4.477-10-10-10h-29.886v-67.84h94.224c3.143 0 6.103-1.477 7.992-3.989 1.889-2.511 2.488-5.765 1.616-8.784zm-480.59 315.42h135.11v68.266h-135.11zm155.11-62.638h135.11v130.903h-135.11zm290.221 130.904h-135.111v-193.542h135.11v193.542zm-37.67-213.542h-59.771v-31.362h59.771zm52.913-167.37 8.131 28.168h-80.93v-61.883h80.93l-8.131 28.168c-.523 1.812-.523 3.734 0 5.547z" fill="#ffffff" data-original="#020288" style="" class=""/>
      </g>
    </g>
  </g>
</svg>
