<?xml version="1.0" encoding="UTF-8"?>
<svg xmlns="http://www.w3.org/2000/svg" xmlns:xlink="http://www.w3.org/1999/xlink" xmlns:svgjs="http://svgjs.com/svgjs" version="1.1" width="512" height="512" x="0" y="0" viewBox="0 0 512 512" style="enable-background:new 0 0 512 512" xml:space="preserve" class="">
  <g>
    <g xmlns="http://www.w3.org/2000/svg">
      <g fill="#020288">
        <path d="m502 269.782h-216.888c-5.523 0-10 4.477-10 10v217.064c0 5.523 4.477 10 10 10 60.605 0 117.583-23.62 160.437-66.508 42.851-42.887 66.451-99.907 66.451-160.556 0-5.523-4.477-10-10-10zm-206.888 216.824v-27.693l1.426 1.426c1.953 1.953 4.512 2.929 7.071 2.929s5.119-.976 7.071-2.929c3.905-3.905 3.905-10.237 0-14.143l-15.569-15.569v-49.165l54.294 54.294c1.953 1.953 4.512 2.929 7.071 2.929s5.119-.976 7.071-2.929c3.905-3.905 3.905-10.237 0-14.143l-68.436-68.437v-49.166l47.533 47.533c1.953 1.953 4.512 2.929 7.071 2.929s5.119-.977 7.071-2.929c3.905-3.905 3.905-10.237.001-14.142l-47.621-47.622h49.166l68.524 68.524c1.953 1.953 4.512 2.929 7.071 2.929s5.119-.977 7.071-2.929c3.905-3.905 3.905-10.237 0-14.143l-54.382-54.381h49.166l15.657 15.657c1.953 1.953 4.512 2.929 7.071 2.929s5.119-.976 7.071-2.929c3.905-3.905 3.905-10.237 0-14.143l-1.514-1.514h27.693c-5.07 106.24-90.501 191.752-196.648 196.827z" fill="#ffffff" data-original="#020288" style="" class=""/>
        <path d="m227.063 52.981c-60.649 0-117.669 23.6-160.555 66.451-42.888 42.854-66.508 99.832-66.508 160.437s23.62 117.583 66.508 160.438c42.886 42.852 99.906 66.451 160.555 66.451 5.523 0 10-4.477 10-10v-433.777c0-5.523-4.477-10-10-10zm-10 433.539c-109.55-5.23-197.063-95.921-197.063-206.651s87.513-201.42 197.063-206.65z" fill="#ffffff" data-original="#020288" style="" class=""/>
      </g>
      <g>
        <path d="m280.829 5.155v216.888h217.063c.001-119.784-97.182-216.888-217.063-216.888z" fill="#fcba03" data-original="#fcba03" style="" class=""/>
      </g>
    </g>
  </g>
</svg>
