<?xml version="1.0"?>
<svg xmlns="http://www.w3.org/2000/svg" xmlns:xlink="http://www.w3.org/1999/xlink" xmlns:svgjs="http://svgjs.com/svgjs" version="1.1" width="512" height="512" x="0" y="0" viewBox="0 0 512 512" style="enable-background:new 0 0 512 512" xml:space="preserve" class=""><g><g xmlns="http://www.w3.org/2000/svg"><g><path d="m453.362 176.01v-43.768c-25.379 0-29.288-12.241-29.288-37.62h-179.555c0 25.379-3.909 37.62-29.288 37.62v43.768c25.379 0 29.288 12.241 29.288 37.62h179.555c0-25.379 3.909-37.62 29.288-37.62z" fill="#fcba03" data-original="#fcba03" style=""/></g><g fill="#020288"><path d="m502 41.009h-335.407c-5.523 0-10 4.477-10 10v206.233c0 5.523 4.477 10 10 10h335.407c5.522 0 10-4.477 10-10v-206.233c0-5.523-4.478-10-10-10zm-10 206.233h-315.407v-186.233h315.407z" fill="#ffffff" data-original="#020288" style="" class=""/><path d="m496.109 309.159c-15.976-11.228-37.541-9.28-51.278 4.635-.44.446-.838.932-1.187 1.453l-21.938 32.685c-6.142-14.497-20.412-24.681-36.991-24.681l-157.832-.106h-.007c-2.394 0-4.707.858-6.521 2.419l-39.54 34.017h-28.855v-8.789c0-5.523-4.478-10-10-10h-44.03v-1.368c0-5.523-4.478-10-10-10h-77.93c-5.523 0-10 4.477-10 10v117.278c0 5.523 4.477 10 10 10h77.93c5.522 0 10-4.477 10-10v-1.368h44.029c5.522 0 10-4.477 10-10v-9.234h33.157l29.954 31.753c1.891 2.004 4.523 3.138 7.274 3.138.047 0 .094-.001.141-.001l206.514-2.897c3.222-.045 6.225-1.64 8.066-4.284l65.616-94.224c.041-.059.082-.119.121-.178 6.354-9.556 9.605-20.515 9.157-30.858-.526-12.14-6.155-22.577-15.85-29.39zm-418.179 137.543h-57.93v-97.278h57.93zm54.029-11.369h-34.029v-74.543h34.029zm354.245-77.085-62.618 89.92-196.984 2.763-29.896-31.692c-1.89-2.003-4.521-3.138-7.274-3.138h-37.472v-36.52h32.565c2.394 0 4.707-.858 6.521-2.419l39.537-34.014 154.125.103c11.147 0 20.216 9.236 20.216 20.589 0 11.352-9.068 20.587-20.216 20.587-.013 0-.026 0-.039 0h-86.28c-2.745 0-5.368 1.128-7.257 3.12l-21.038 22.19c-3.8 4.008-3.631 10.337.377 14.137 1.934 1.833 4.408 2.743 6.878 2.743 2.649 0 5.293-1.046 7.259-3.12l18.08-19.071 99.847.005h.003c3.332 0 6.446-1.66 8.303-4.427l48.832-72.752c6.864-6.397 17.215-7.159 24.935-1.732 10.422 7.326 8.694 21.989 1.596 32.728z" fill="#ffffff" data-original="#020288" style="" class=""/></g></g></g></svg>
