<svg xmlns="http://www.w3.org/2000/svg" viewBox="0 0 280.52 74.9"><defs><style>.cls-1{fill:#fff;}</style></defs><g id="Layer_2" data-name="Layer 2"><g id="Layer_1-2" data-name="Layer 1"><path class="cls-1" d="M39.2,30.84l-4.33,0-4.5-.08c-1.44,0-2.68-.06-3.7-.11v1.47a15.61,15.61,0,0,1,4.69.66A3.41,3.41,0,0,1,33.52,35a17.27,17.27,0,0,1,.55,5v7.18a5.59,5.59,0,0,1-.37,2.24A3.94,3.94,0,0,1,32.31,51a8.21,8.21,0,0,1-2.12,1,9.86,9.86,0,0,1-3.08.44,11.51,11.51,0,0,1-10.44-6.08Q13,40.29,13,27.11a48.28,48.28,0,0,1,.88-9.34,30.73,30.73,0,0,1,2.71-8.1A15.78,15.78,0,0,1,21.32,4,11.36,11.36,0,0,1,28.21,1.9a15.06,15.06,0,0,1,5.24,1A12.27,12.27,0,0,1,37.8,5.49a11.94,11.94,0,0,1,3.92,5.61,39.46,39.46,0,0,1,1.58,7.66H45Q45,12,45.06,8T45.28,1H43.59q-.44,4.39-1.83,4.39a2.64,2.64,0,0,1-1.46-.66,26.08,26.08,0,0,0-5.65-3.37A20.24,20.24,0,0,0,26.52,0,27.08,27.08,0,0,0,12.78,3.44,24.64,24.64,0,0,0,3.41,13,29.5,29.5,0,0,0,0,27.55Q0,40,6.67,47t19.49,7a18.77,18.77,0,0,0,6.3-1.06,35.53,35.53,0,0,0,5.71-2.6A14.32,14.32,0,0,1,40.77,49a5,5,0,0,1,1.36-.26c.73,0,1.25.49,1.57,1.47a10.78,10.78,0,0,1,.55,2.71h1.47V38.39c0-2.73.2-4.44.62-5.13A3.2,3.2,0,0,1,49,32.09V30.62q-1.6.07-4.17.15C43.13,30.82,41.25,30.84,39.2,30.84Z"/><path class="cls-1" d="M98.5,3.15A28.12,28.12,0,0,0,84.91,0,26,26,0,0,0,71.47,3.44,24.4,24.4,0,0,0,62.31,13,29.71,29.71,0,0,0,59,27.4,29.55,29.55,0,0,0,62.2,41.69a22.06,22.06,0,0,0,9,9.08,28.12,28.12,0,0,0,13.59,3.15,26.07,26.07,0,0,0,13.48-3.44,24.13,24.13,0,0,0,9.16-9.6,29.93,29.93,0,0,0,3.29-14.36,29.48,29.48,0,0,0-3.22-14.32A22.1,22.1,0,0,0,98.5,3.15ZM97,40.19a22.14,22.14,0,0,1-4.69,9.12,9.42,9.42,0,0,1-7.14,3.29,9.9,9.9,0,0,1-7.07-3.11,21.41,21.41,0,0,1-5-8.87,43.65,43.65,0,0,1-1.87-13.51A49.1,49.1,0,0,1,72.79,13.7a22,22,0,0,1,4.69-9.08,9.4,9.4,0,0,1,7.14-3.3,9.94,9.94,0,0,1,7.07,3.11,21.43,21.43,0,0,1,5,8.83,43.66,43.66,0,0,1,1.87,13.55A49.23,49.23,0,0,1,97,40.19Z"/><path class="cls-1" d="M163.93,48.94q.69.81,1,4h1.68c-.1-2-.17-4.36-.22-7.22s-.07-6.6-.07-11.25h-1.69a43.1,43.1,0,0,1-1.54,8.69,10.82,10.82,0,0,1-3.88,5.45A11.54,11.54,0,0,1,155,51.25a13.88,13.88,0,0,1-4.87.91,11.22,11.22,0,0,1-6.74-2,15.11,15.11,0,0,1-4.66-5.57,29.52,29.52,0,0,1-2.63-8,50.36,50.36,0,0,1-.85-9.41,52.61,52.61,0,0,1,.81-9.34,31.39,31.39,0,0,1,2.53-8.1A15.07,15.07,0,0,1,143.08,4a11,11,0,0,1,6.74-2.09,14.84,14.84,0,0,1,5.06.88,11.57,11.57,0,0,1,4.25,2.71,11,11,0,0,1,2.93,3.3A17,17,0,0,1,163.67,13a44.24,44.24,0,0,1,1,5.76h1.69q0-6.75.07-10.81T166.6,1h-1.68c-.2,2.1-.55,3.43-1.07,4s-1.25.47-2.23-.26a27.24,27.24,0,0,0-5.53-3.33,19.2,19.2,0,0,0-8-1.43,26,26,0,0,0-13.45,3.44,24.45,24.45,0,0,0-9.15,9.6A29.6,29.6,0,0,0,122.2,27.4a29.55,29.55,0,0,0,3.23,14.29,22,22,0,0,0,9,9.08,28.18,28.18,0,0,0,13.59,3.15,18.32,18.32,0,0,0,7.81-1.43,38.58,38.58,0,0,0,5.75-3.33C162.69,48.48,163.46,48.4,163.93,48.94Z"/><path class="cls-1" d="M225.21,51.43a4.52,4.52,0,0,1-2.31-1.06,8.37,8.37,0,0,1-2.3-3.63L202.79.88c-.78.05-1.62.07-2.53.07s-1.74,0-2.52-.07L181,43.74a17.22,17.22,0,0,1-3.15,5.71,6,6,0,0,1-3.15,2V52.9a24.79,24.79,0,0,1,2.53-.19c1,0,2,0,3,0q2.26,0,4.47,0c1.46,0,3,.09,4.61.19V51.43a10.66,10.66,0,0,1-4.68-1.13q-1.77-1-1.8-3.78c0-1.85.65-4.59,2-8.2l1.94-5.06H202.8l4.39,12q1.45,3.73.47,4.87c-.66.76-2.23,1.18-4.72,1.28V52.9c1.17-.1,2.76-.16,4.76-.19s4.13,0,6.37,0q3,0,6,0c2,0,3.7.09,5.16.19ZM187.42,31.8,195,12l7.24,19.81Z"/><path class="cls-1" d="M280.52,49.67l-1-.88A6.76,6.76,0,0,1,278.14,50a3.31,3.31,0,0,1-1.57.48,2.37,2.37,0,0,1-2.13-1.17,14.62,14.62,0,0,1-1.39-4.11l-1.68-7.54a10.72,10.72,0,0,0-4.14-6.82q-3.18-2.25-9.79-2.85a29.14,29.14,0,0,0,5.14-1,17.8,17.8,0,0,0,6.7-3.45,12.77,12.77,0,0,0,3.48-4.68,13.36,13.36,0,0,0,1-5,10.65,10.65,0,0,0-5-9.42Q263.68,1.1,253.49,1.1c-.93,0-2.49,0-4.69.07s-4.47.08-6.81.08c-2.05,0-4.12,0-6.19-.08l-5-.14V2.49a10.82,10.82,0,0,1,3.48.55,2.63,2.63,0,0,1,1.61,1.76,14.31,14.31,0,0,1,.41,4V45.13a14.4,14.4,0,0,1-.41,4,2.56,2.56,0,0,1-1.57,1.76,13.23,13.23,0,0,1-3.52.58V52.9c1.22-.1,2.87-.16,5-.19s4.28,0,6.63,0q3.07,0,6.08,0c2,0,3.66.09,5,.19V51.43a13.23,13.23,0,0,1-3.52-.58,2.56,2.56,0,0,1-1.57-1.76,14.48,14.48,0,0,1-.4-4V28.28h4.76a4.63,4.63,0,0,1,3.55,1.36,9.28,9.28,0,0,1,2,3.66,40.37,40.37,0,0,1,1.24,5.38L260.89,46c.54,3,1.66,5.1,3.37,6.23a11.67,11.67,0,0,0,6.52,1.68,13.76,13.76,0,0,0,5.5-1A12,12,0,0,0,280.52,49.67ZM248.84,3.74c.56-.83,1.79-1.25,3.7-1.25q5,0,7,3.19t2.05,9a20.87,20.87,0,0,1-.84,6.12,8.37,8.37,0,0,1-3.08,4.4c-1.49,1.1-3.67,1.64-6.55,1.64H248v-18C248,6.25,248.28,4.57,248.84,3.74Z"/><path class="cls-1" d="M8.28,67a.59.59,0,0,0-.14.18l-1.8,3.06-.17.36a3.45,3.45,0,0,0-.14.34,3.45,3.45,0,0,0-.14-.34q-.09-.16-.18-.36L3.9,67.18A.54.54,0,0,0,3.76,67a.32.32,0,0,0-.23-.07H2.6l2.89,4.74v3.14H6.55V71.67l2.89-4.74H8.5A.31.31,0,0,0,8.28,67Z"/><path class="cls-1" d="M25.38,68a3.39,3.39,0,0,0-1.23-.83,4.34,4.34,0,0,0-3.17,0,3.48,3.48,0,0,0-1.23.83A3.79,3.79,0,0,0,19,69.25a4.45,4.45,0,0,0-.28,1.62A4.54,4.54,0,0,0,19,72.5a3.84,3.84,0,0,0,.79,1.27A3.61,3.61,0,0,0,21,74.6a4.48,4.48,0,0,0,3.17,0,3.52,3.52,0,0,0,1.23-.83,3.68,3.68,0,0,0,.79-1.27,4.54,4.54,0,0,0,.28-1.63,4.45,4.45,0,0,0-.28-1.62A3.63,3.63,0,0,0,25.38,68Zm-.22,4.2a2.77,2.77,0,0,1-.56,1,2.49,2.49,0,0,1-.88.61,3,3,0,0,1-1.16.21,3,3,0,0,1-1.14-.21,2.52,2.52,0,0,1-.89-.61,2.77,2.77,0,0,1-.56-1,4,4,0,0,1-.2-1.3,4,4,0,0,1,.2-1.3,2.77,2.77,0,0,1,.56-1,2.52,2.52,0,0,1,.89-.61,3,3,0,0,1,1.14-.22,3,3,0,0,1,1.16.22,2.49,2.49,0,0,1,.88.61,2.77,2.77,0,0,1,.56,1,4,4,0,0,1,.2,1.3A4,4,0,0,1,25.16,72.17Z"/><path class="cls-1" d="M42.22,71.72a2.94,2.94,0,0,1-.14.91,2,2,0,0,1-.41.71,1.82,1.82,0,0,1-.65.46,2.18,2.18,0,0,1-.87.16,2.06,2.06,0,0,1-.88-.17,1.71,1.71,0,0,1-.65-.46,1.92,1.92,0,0,1-.41-.71,2.9,2.9,0,0,1-.14-.91V66.93H37v4.79A3.7,3.7,0,0,0,37.22,73a3,3,0,0,0,.63,1,2.76,2.76,0,0,0,1,.67,3.4,3.4,0,0,0,1.31.24,3.43,3.43,0,0,0,1.31-.24,2.72,2.72,0,0,0,1-.67,3,3,0,0,0,.63-1,3.7,3.7,0,0,0,.21-1.26V66.93H42.22Z"/><path class="cls-1" d="M71.81,73.18a.29.29,0,0,0-.19.08,3,3,0,0,1-.41.33,2.35,2.35,0,0,1-.45.22,2.64,2.64,0,0,1-.52.13,4.09,4.09,0,0,1-.63,0,2.74,2.74,0,0,1-1.08-.21,2.37,2.37,0,0,1-.86-.61,2.76,2.76,0,0,1-.58-1,3.89,3.89,0,0,1-.21-1.32,4,4,0,0,1,.2-1.3,2.94,2.94,0,0,1,.57-1,2.33,2.33,0,0,1,.87-.61,2.73,2.73,0,0,1,1.12-.22,2.82,2.82,0,0,1,1.43.35,4,4,0,0,1,.37.24.49.49,0,0,0,.24.11.27.27,0,0,0,.23-.13l.35-.49a3.6,3.6,0,0,0-1.13-.73,3.81,3.81,0,0,0-1.49-.27,4.13,4.13,0,0,0-1.56.29,3.62,3.62,0,0,0-1.22.83,3.79,3.79,0,0,0-.79,1.28,4.5,4.5,0,0,0-.28,1.63,4.68,4.68,0,0,0,.27,1.63,3.72,3.72,0,0,0,.76,1.28A3.3,3.3,0,0,0,68,74.6a3.85,3.85,0,0,0,1.54.3,4,4,0,0,0,1.67-.32,3.26,3.26,0,0,0,1.17-.87L72,73.25A.23.23,0,0,0,71.81,73.18Z"/><path class="cls-1" d="M84.93,66.93l-3.15,7.88h.82a.36.36,0,0,0,.23-.08.34.34,0,0,0,.13-.17l.74-1.91h3.53L88,74.56a.46.46,0,0,0,.13.18.35.35,0,0,0,.23.07h.83L86,66.93ZM84,71.88l1.24-3.2a6.49,6.49,0,0,0,.24-.74,3.84,3.84,0,0,0,.11.4c0,.13.08.24.12.34l1.24,3.2Z"/><path class="cls-1" d="M104.78,72.51a2.35,2.35,0,0,0,0,.26,2.45,2.45,0,0,0,0,.27l-4.56-5.93a.38.38,0,0,0-.09-.09l-.07-.06-.09,0h-.67v7.88h.93V69c0-.09,0-.18,0-.27l4.56,5.94a.47.47,0,0,0,.17.15.56.56,0,0,0,.21,0h.53V66.93h-.93Z"/><path class="cls-1" d="M137.8,67a.47.47,0,0,0-.12.18l-1.63,5.48c0,.09-.05.2-.08.31l-.06.34a3.38,3.38,0,0,0-.08-.34,1.4,1.4,0,0,0-.09-.31l-1.84-5.48a.49.49,0,0,0-.14-.18.33.33,0,0,0-.23-.07h-.31A.31.31,0,0,0,133,67a.41.41,0,0,0-.13.17L131,72.66a1.35,1.35,0,0,0-.09.32,3.21,3.21,0,0,0-.08.36c0-.13-.05-.25-.07-.36s-.05-.22-.08-.32l-1.62-5.48a.32.32,0,0,0-.13-.18.36.36,0,0,0-.24-.07h-.88l2.46,7.88h.95l2-6,.06-.19a2.09,2.09,0,0,1,0-.21,2.09,2.09,0,0,1,.05.21l.06.19,2,6h1l2.46-7.88H138A.38.38,0,0,0,137.8,67Z"/><rect class="cls-1" x="149.17" y="66.93" width="1.07" height="7.88"/><polygon class="cls-1" points="160.54 67.83 163.1 67.83 163.1 74.81 164.16 74.81 164.16 67.83 166.71 67.83 166.71 66.93 160.54 66.93 160.54 67.83"/><polygon class="cls-1" points="182.33 70.44 178.08 70.44 178.08 66.93 177.01 66.93 177.01 74.81 178.08 74.81 178.08 71.22 182.33 71.22 182.33 74.81 183.39 74.81 183.39 66.93 182.33 66.93 182.33 70.44"/><path class="cls-1" d="M210.47,71.62a.2.2,0,0,0,.06.15.24.24,0,0,0,.17.06h1.22v1.74a4.53,4.53,0,0,1-.83.34,4,4,0,0,1-2.24-.09,2.57,2.57,0,0,1-.95-.62,3.05,3.05,0,0,1-.61-1,3.91,3.91,0,0,1-.21-1.33,3.75,3.75,0,0,1,.21-1.29,2.74,2.74,0,0,1,.58-1,2.58,2.58,0,0,1,.92-.62,3.29,3.29,0,0,1,1.2-.22,3.56,3.56,0,0,1,.79.08,2.67,2.67,0,0,1,.58.17,3.09,3.09,0,0,1,.41.21l.31.19a.34.34,0,0,0,.25,0,.34.34,0,0,0,.18-.14l.3-.48a3.13,3.13,0,0,0-.54-.42,3.68,3.68,0,0,0-.63-.31,3.5,3.5,0,0,0-.74-.2,4.79,4.79,0,0,0-.87-.07,4.7,4.7,0,0,0-1.68.29,3.71,3.71,0,0,0-1.27.82,3.66,3.66,0,0,0-.8,1.28,4.52,4.52,0,0,0-.29,1.64,4.26,4.26,0,0,0,.3,1.63,3.59,3.59,0,0,0,.83,1.28,3.74,3.74,0,0,0,1.31.82,4.65,4.65,0,0,0,1.71.3,5,5,0,0,0,1.48-.21,4.63,4.63,0,0,0,1.27-.65V71h-2.42Z"/><path class="cls-1" d="M229.86,68a3.39,3.39,0,0,0-1.23-.83,4.09,4.09,0,0,0-1.59-.3,4,4,0,0,0-1.58.3,3.39,3.39,0,0,0-1.23.83,3.79,3.79,0,0,0-.79,1.28,4.45,4.45,0,0,0-.28,1.62,4.54,4.54,0,0,0,.28,1.63,3.84,3.84,0,0,0,.79,1.27,3.52,3.52,0,0,0,1.23.83,4.23,4.23,0,0,0,1.58.29,4.29,4.29,0,0,0,1.59-.29,3.52,3.52,0,0,0,1.23-.83,3.84,3.84,0,0,0,.79-1.27,4.54,4.54,0,0,0,.28-1.63,4.45,4.45,0,0,0-.28-1.62A3.79,3.79,0,0,0,229.86,68Zm-.22,4.2a2.77,2.77,0,0,1-.56,1,2.49,2.49,0,0,1-.88.61,3.28,3.28,0,0,1-2.31,0,2.49,2.49,0,0,1-.88-.61,2.77,2.77,0,0,1-.56-1,3.74,3.74,0,0,1-.2-1.3,3.78,3.78,0,0,1,.2-1.3,2.77,2.77,0,0,1,.56-1,2.49,2.49,0,0,1,.88-.61,3.14,3.14,0,0,1,2.31,0,2.49,2.49,0,0,1,.88.61,2.77,2.77,0,0,1,.56,1,4,4,0,0,1,.2,1.3A4,4,0,0,1,229.64,72.17Z"/><path class="cls-1" d="M247.12,73.18a.31.31,0,0,0-.19.08,3,3,0,0,1-.41.33,2.35,2.35,0,0,1-.45.22,2.47,2.47,0,0,1-.52.13,4.09,4.09,0,0,1-.63,0,2.74,2.74,0,0,1-1.08-.21,2.37,2.37,0,0,1-.86-.61,2.76,2.76,0,0,1-.58-1,3.89,3.89,0,0,1-.21-1.32,4,4,0,0,1,.2-1.3,2.94,2.94,0,0,1,.57-1,2.5,2.5,0,0,1,.87-.61,2.73,2.73,0,0,1,1.12-.22,2.92,2.92,0,0,1,.85.11,2.67,2.67,0,0,1,.58.24,4,4,0,0,1,.37.24.48.48,0,0,0,.25.11.21.21,0,0,0,.14,0,.24.24,0,0,0,.08-.09l.35-.49a3.6,3.6,0,0,0-1.13-.73,3.79,3.79,0,0,0-1.48-.27,4.14,4.14,0,0,0-1.57.29,3.72,3.72,0,0,0-1.22.83,3.79,3.79,0,0,0-.79,1.28,4.5,4.5,0,0,0-.28,1.63,4.68,4.68,0,0,0,.27,1.63,3.72,3.72,0,0,0,.76,1.28,3.3,3.3,0,0,0,1.18.82,3.85,3.85,0,0,0,1.54.3,4,4,0,0,0,1.67-.32,3.26,3.26,0,0,0,1.17-.87l-.42-.46A.21.21,0,0,0,247.12,73.18Z"/><path class="cls-1" d="M260.24,66.93l-3.15,7.88h.82a.37.37,0,0,0,.36-.25l.74-1.91h3.54l.73,1.91a.46.46,0,0,0,.13.18.36.36,0,0,0,.24.07h.82l-3.15-7.88Zm-.93,4.95,1.23-3.2a6.49,6.49,0,0,0,.24-.74,3.79,3.79,0,0,0,.12.4c0,.13.07.24.11.34l1.24,3.2Z"/><path class="cls-1" d="M277.81,71.34a3.17,3.17,0,0,0,.82-.3,2.3,2.3,0,0,0,.61-.5,2,2,0,0,0,.38-.65,2.44,2.44,0,0,0,0-1.68,1.67,1.67,0,0,0-.52-.69,2.52,2.52,0,0,0-.9-.44,4.86,4.86,0,0,0-1.29-.15h-2.23v7.88h1.06V71.52h.81a.69.69,0,0,1,.33.06.59.59,0,0,1,.2.19l2,2.81a.46.46,0,0,0,.43.23h.94l-2.29-3.13A1.06,1.06,0,0,0,277.81,71.34Zm-1-.59H275.7v-3h1.17a2.23,2.23,0,0,1,1.38.36,1.26,1.26,0,0,1,.47,1.06,1.45,1.45,0,0,1-.13.63,1.25,1.25,0,0,1-.36.49,1.52,1.52,0,0,1-.59.32A2.57,2.57,0,0,1,276.82,70.75Z"/></g></g></svg>