<?xml version="1.0"?>
<svg xmlns="http://www.w3.org/2000/svg" xmlns:xlink="http://www.w3.org/1999/xlink" xmlns:svgjs="http://svgjs.com/svgjs" version="1.1" width="512" height="512" x="0" y="0" viewBox="0 0 512 512" style="enable-background:new 0 0 512 512" xml:space="preserve" class=""><g><path xmlns="http://www.w3.org/2000/svg" d="m416 512h-320c-53.023438 0-96-42.976562-96-96v-320c0-53.023438 42.976562-96 96-96h320c53.023438 0 96 42.976562 96 96v320c0 53.023438-42.976562 96-96 96zm0 0" fill="#a3ddcb" data-original="#f5e6fe" style="" class=""/><g xmlns="http://www.w3.org/2000/svg" fill="#be63f9"><path d="m341.328125 170.671875h-170.65625c-5.886719 0-10.671875 4.785156-10.671875 10.671875v21.328125c0 5.886719 4.785156 10.671875 10.671875 10.671875h170.671875c5.886719 0 10.671875-4.785156 10.671875-10.671875v-21.328125c-.015625-5.886719-4.800781-10.671875-10.6875-10.671875zm0 0" fill="#0a043c" data-original="#be63f9" style="" class=""/><path d="m341.328125 234.671875h-170.65625c-5.886719 0-10.671875 4.785156-10.671875 10.671875v21.328125c0 5.886719 4.785156 10.671875 10.671875 10.671875h170.671875c5.886719 0 10.671875-4.785156 10.671875-10.671875v-21.328125c-.015625-5.886719-4.800781-10.671875-10.6875-10.671875zm0 0" fill="#0a043c" data-original="#be63f9" style="" class=""/><path d="m341.328125 298.671875h-170.65625c-5.886719 0-10.671875 4.785156-10.671875 10.671875v21.328125c0 5.886719 4.785156 10.671875 10.671875 10.671875h170.671875c5.886719 0 10.671875-4.785156 10.671875-10.671875v-21.328125c-.015625-5.886719-4.800781-10.671875-10.6875-10.671875zm0 0" fill="#0a043c" data-original="#be63f9" style="" class=""/></g></g></svg>
